<svg xmlns="http://www.w3.org/2000/svg" viewBox="0 0 90.97 108.07"><defs><style>.cls-1{fill:#f4a261;}.cls-1,.cls-2,.cls-3{fill-rule:evenodd;}.cls-2{fill:#e9c369;}.cls-3{fill:#e76f51;}</style></defs><title>prism-logo_4</title><g id="Layer_2" data-name="Layer 2"><g id="Layer_1-2" data-name="Layer 1"><path id="Path_85" data-name="Path 85" class="cls-1" d="M21,39.83,0,52V27.72Z"/><path id="Path_86" data-name="Path 86" class="cls-2" d="M0,25.5,21,13.39V37.62Z"/><path id="Path_87" data-name="Path 87" class="cls-2" d="M21.23,68.1.24,80.22V56Z"/><path id="Path_88" data-name="Path 88" class="cls-3" d="M.2,54l21-12.12V66.08Z"/><path id="Path_90" data-name="Path 90" class="cls-3" d="M43.56,25.5l-21,12.12V13.39Z"/><path id="Path_93" data-name="Path 93" class="cls-2" d="M69.94,40l21-12.11V52.15Z"/><path id="Path_94" data-name="Path 94" class="cls-1" d="M91,25.9,70,38V13.78Z"/><path id="Path_95" data-name="Path 95" class="cls-1" d="M69.74,68.3l21-12.11V80.42Z"/><path id="Path_96" data-name="Path 96" class="cls-3" d="M90.78,54.17l-21,12.11V42.05Z"/><path id="Path_98" data-name="Path 98" class="cls-3" d="M47.42,25.5l21-12.11V37.62Z"/><path id="Path_89" data-name="Path 89" class="cls-1" d="M.4,82.38l21-12.12V94.5Z"/><path id="Path_92" data-name="Path 92" class="cls-3" d="M43.75,82.38l-21,12.12V70.26Z"/><path id="Path_97" data-name="Path 97" class="cls-2" d="M90.58,82.38l-21,12.12V70.26Z"/><path id="Path_91" data-name="Path 91" class="cls-2" d="M23.71,96l21-12.12v24.23Z"/><path id="Path_99" data-name="Path 99" class="cls-1" d="M67.26,96l-21,12.11V83.84Z"/><path id="Path_100" data-name="Path 100" class="cls-3" d="M47.22,82.38l21-12.12V94.5Z"/><path id="Path_101" data-name="Path 101" class="cls-1" d="M23.51,12.12,44.5,0V24.23Z"/><path id="Path_102" data-name="Path 102" class="cls-2" d="M67.07,12.31l-21,12.12V.2Z"/></g></g></svg>